Coordinates
version=1
nRows=7
nColumns=63
inDegrees=yes

Units are S.I. units (second, meters, Newtons, ...)
If the header above contains a line with 'inDegrees', this indicates whether rotational values are in degrees (yes) or radians (no).

endheader
time	pelvis_tilt	pelvis_list	pelvis_rotation	pelvis_tx	pelvis_ty	pelvis_tz	hip_flexion_r	hip_adduction_r	hip_rotation_r	knee_angle_r	knee_angle_r_beta	ankle_angle_r	subtalar_angle_r	mtp_angle_r	hip_flexion_l	hip_adduction_l	hip_rotation_l	knee_angle_l	knee_angle_l_beta	ankle_angle_l	subtalar_angle_l	mtp_angle_l	L5_S1_Flex_Ext	L5_S1_Lat_Bending	L5_S1_axial_rotation	L4_L5_Flex_Ext	L4_L5_Lat_Bending	L4_L5_axial_rotation	L3_L4_Flex_Ext	L3_L4_Lat_Bending	L3_L4_axial_rotation	L2_L3_Flex_Ext	L2_L3_Lat_Bending	L2_L3_axial_rotation	L1_L2_Flex_Ext	L1_L2_Lat_Bending	L1_L2_axial_rotation	L1_T12_Flex_Ext	L1_T12_Lat_Bending	L1_T12_axial_rotation	Abs_r3	Abs_r2	Abs_r1	Abs_t1	Abs_t2	neck_flexion	neck_bending	neck_rotation	arm_flex_r	arm_add_r	arm_rot_r	elbow_flex_r	pro_sup_r	wrist_flex_r	wrist_dev_r	arm_flex_l	arm_add_l	arm_rot_l	elbow_flex_l	pro_sup_l	wrist_flex_l	wrist_dev_l
      0.00000000	     -3.83857464	     -4.69982738	     93.78226769	      0.24774904	      0.95479546	      0.27979023	      3.29197339	     -4.46046642	    -14.18154469	      3.13007868	      0.05463018	     17.64707295	     13.56855016	      0.00000000	      6.50995857	      6.37979700	      1.23224677	      7.13962738	      0.12461001	      5.66194690	    -17.28103648	      0.00000000	      0.12075646	     -0.53622275	     -0.23290705	      0.22425682	     -0.71317626	     -0.24746374	      0.19839079	     -1.30377200	     -0.24746374	      0.13801256	     -1.30377200	     -0.20379367	      0.11213445	     -1.09346544	     -0.18923698	      0.06900024	     -0.83060904	     -0.17468029	      0.86255132	     -6.06585902	     -1.29535913	      0.00000000	      0.00000000	     15.82769958	      5.22386355	      5.74490949	      6.80206024	     -8.52261497	     52.98376015	     55.08760835	      8.65858292	     -5.79403160	      9.86624940	     10.65161669	    -10.72295929	     47.95267802	     59.06861595	     85.74182831	      4.21211769	     12.41730766
      0.01694915	     -3.42681954	     -4.40396304	     94.31345102	      0.24648071	      0.95550455	      0.27937546	      2.87594677	     -4.05378165	    -15.43318513	      3.35672579	      0.05858592	     17.48558003	     13.64040618	      0.00000000	      6.35450674	      5.97152481	      1.57314196	      7.21450053	      0.12591679	      6.50164265	    -16.95866333	      0.00000000	      0.09993966	     -0.48478232	     -0.51579843	      0.18559794	     -0.64476049	     -0.54803583	      0.16419086	     -1.17869973	     -0.54803583	      0.11422103	     -1.17869973	     -0.45132363	      0.09280397	     -0.98856811	     -0.41908622	      0.05710552	     -0.75092781	     -0.38684882	      0.71385898	     -5.48395456	     -2.86871613	      0.00000000	      0.00000000	     15.32170646	      5.42928864	      6.54941646	      7.67400295	     -8.48044993	     54.95600214	     54.58647576	      6.86599524	     -7.75123100	     10.59582727	      9.83891493	    -10.59351427	     46.15777066	     59.05636474	     84.73381240	      4.46589296	     13.84846789
      0.03389831	     -3.16575480	     -4.18030577	     94.51087688	      0.24588239	      0.95603103	      0.27862057	      2.57765014	     -3.76390830	    -15.79591357	      3.50636318	      0.06119758	     17.29659579	     13.19273958	      0.00000000	      6.12422185	      5.68835858	      1.75580395	      7.11413783	      0.12416513	      7.04665002	    -16.74613219	      0.00000000	      0.08857381	     -0.45230006	     -0.65916165	      0.16449042	     -0.60155908	     -0.70035925	      0.14551791	     -1.09972237	     -0.70035925	      0.10123101	     -1.09972237	     -0.57676644	      0.08224964	     -0.92233029	     -0.53556884	      0.05061108	     -0.70061280	     -0.49437123	      0.63267387	     -5.11650877	     -3.66605932	      0.00000000	      0.00000000	     14.95778321	      5.51732999	      6.97548598	      8.12361594	     -8.30869791	     55.82952825	     53.89585588	      7.17456815	     -8.28444563	     11.90263820	      9.26362064	    -10.49654168	     45.10181515	     59.12230616	     83.81494674	      4.09323221	     14.81099204
      0.05084746	     -2.87515435	     -4.00642401	     94.83116937	      0.24517717	      0.95642810	      0.27796079	      2.29469323	     -3.44394142	    -16.40656404	      3.53073551	      0.06162296	     17.10198636	     13.13991261	      0.00000000	      6.01131113	      5.38238575	      2.04076487	      7.18646763	      0.12542752	      7.52135800	    -16.52492340	      0.00000000	      0.07776900	     -0.41607202	     -0.77998314	      0.14442482	     -0.55337579	     -0.82873208	      0.12776670	     -1.01163752	     -0.82873208	      0.08888219	     -1.01163752	     -0.68248524	      0.07221630	     -0.84845407	     -0.63373630	      0.04443721	     -0.64449556	     -0.58498735	      0.55549621	     -4.70668995	     -4.33803221	      0.00000000	      0.00000000	     14.71276412	      5.58121771	      7.32698458	      8.56644494	     -8.32532833	     57.05387823	     53.54893228	      6.40063231	     -8.67719560	     11.74542996	      8.92329003	    -10.33956709	     44.36649177	     59.05903849	     82.87222400	      4.32722402	     15.49965021
      0.06779661	     -2.66567668	     -3.84465933	     94.93815910	      0.24489553	      0.95673314	      0.27704410	      2.04811420	     -3.18767694	    -16.54301287	      3.52389549	      0.06150358	     16.99370541	     12.94483889	      0.00000000	      5.77814505	      5.14653977	      2.28082690	      7.09208494	      0.12378023	      7.78509132	    -16.47855324	      0.00000000	      0.06903672	     -0.38992346	     -0.81616599	      0.12820808	     -0.51859820	     -0.86717636	      0.11342042	     -0.94805990	     -0.86717636	      0.07890206	     -0.94805990	     -0.71414524	      0.06410749	     -0.79513192	     -0.66313487	      0.03944758	     -0.60399144	     -0.61212449	      0.49312236	     -4.41089216	     -4.53927038	      0.00000000	      0.00000000	     14.51282541	      5.55139483	      7.41733669	      8.71903962	     -8.31165460	     57.52571720	     53.15274225	      7.03727006	     -8.17029088	     12.00463693	      8.69844717	    -10.22311913	     44.04292265	     59.08547434	     82.14938347	      4.22982095	     15.89841676
      0.08474576	     -2.55302662	     -3.74671245	     94.86393169	      0.24507591	      0.95693611	      0.27606799	      1.86650606	     -2.99594961	    -15.60584706	      3.42384693	      0.05975740	     16.81548753	     11.73577381	      0.00000000	      5.56016204	      4.98554665	      2.37024284	      6.95664448	      0.12141635	      7.88998663	    -16.45117009	      0.00000000	      0.06903217	     -0.37772877	     -0.79818163	      0.12819964	     -0.50237927	     -0.84806798	      0.11341295	     -0.91840974	     -0.84806798	      0.07889687	     -0.91840974	     -0.69840893	      0.06410327	     -0.77026452	     -0.64852257	      0.03944498	     -0.58510187	     -0.59863622	      0.49308989	     -4.27294344	     -4.43924677	      0.00000000	      0.00000000	     14.40292707	      5.56145878	      7.36390319	      8.76718053	     -8.25380768	     57.76184607	     52.81001131	      7.85778019	     -7.44214485	     12.18343140	      8.51021560	    -10.12358184	     43.76228397	     59.08672335	     81.85626561	      4.47588656	     16.00247444
      0.10169492	     -2.46107990	     -3.64081027	     94.85488786	      0.24520593	      0.95710487	      0.27511834	      1.67924005	     -2.86777112	    -15.80456149	      3.40001558	      0.05934147	     17.04859230	     12.08625071	      0.00000000	      5.31255829	      4.85845680	      2.63027272	      6.80378828	      0.11874851	      7.93274274	    -16.55131101	      0.00000000	      0.06647000	     -0.36901930	     -0.77608182	      0.12344144	     -0.49079567	     -0.82458693	      0.10920356	     -0.89723352	     -0.82458693	      0.07596856	     -0.89723352	     -0.67907159	      0.06172404	     -0.75250415	     -0.63056648	      0.03798096	     -0.57161089	     -0.58206136	      0.47478856	     -4.17442010	     -4.31633425	      0.00000000	      0.00000000	     14.29897041	      5.54081258	      7.21044917	      8.73259427	     -8.23027713	     57.77469274	     52.58475431	      9.17457233	     -6.69227055	     12.55271028	      8.40479146	    -10.08894173	     43.78683707	     59.16761899	     81.47101410	      4.28785341	     16.18216662
